<?xml version="1.0" encoding="UTF-8"?>
<svg id="Layer_2" data-name="Layer 2" xmlns="http://www.w3.org/2000/svg" viewBox="0 0 90.05 90.05">
  <g id="Layer_3" data-name="Layer 3">
    <path d="m0,0v90.05h90.05V0H0Zm27.4,37.71c-3.94,0-7.13-3.19-7.13-7.13s3.19-7.13,7.13-7.13,7.13,3.19,7.13,7.13-3.19,7.13-7.13,7.13Zm17.54,28.88c-3.94,0-7.13-3.19-7.13-7.13s3.19-7.13,7.13-7.13,7.13,3.19,7.13,7.13-3.19,7.13-7.13,7.13Zm17.71-28.88c-3.94,0-7.13-3.19-7.13-7.13s3.19-7.13,7.13-7.13,7.13,3.19,7.13,7.13-3.19,7.13-7.13,7.13Z"/>
  </g>
</svg>